<svg xmlns="http://www.w3.org/2000/svg" viewBox="0 0 32 40" x="0px" y="0px"><g data-name="42-Certificate"><path d="M24,7V2.59L29.41,8H25A1,1,0,0,1,24,7Zm6,3V27a3,3,0,0,1-3,3H13.82A2.81,2.81,0,0,0,14,29V21.27A8,8,0,0,0,8,8V5a3,3,0,0,1,3-3H22V7a3,3,0,0,0,3,3ZM16,10h3a1,1,0,0,0,0-2H16a1,1,0,0,0,0,2ZM26,24a1,1,0,0,0-1-1H17a1,1,0,0,0,0,2h8A1,1,0,0,0,26,24Zm0-5a1,1,0,0,0-1-1H19a1,1,0,0,0,0,2h6A1,1,0,0,0,26,19Zm0-5a1,1,0,0,0-1-1H19a1,1,0,0,0,0,2h6A1,1,0,0,0,26,14ZM4,22.92V29a1,1,0,0,0,.62.92,1,1,0,0,0,1.09-.21L8,27.41l2.29,2.3A1,1,0,0,0,11,30a.84.84,0,0,0,.38-.08A1,1,0,0,0,12,29V22.92a7.95,7.95,0,0,1-8,0ZM8,10a6,6,0,1,0,6,6A6,6,0,0,0,8,10Z"/></g><text x="0" y="47" fill="#000000" font-size="5px" font-weight="bold" font-family="'Helvetica Neue', Helvetica, Arial-Unicode, Arial, Sans-serif">Created by Nawicon</text><text x="0" y="52" fill="#000000" font-size="5px" font-weight="bold" font-family="'Helvetica Neue', Helvetica, Arial-Unicode, Arial, Sans-serif">from the Noun Project</text></svg>